HIERARCHY
ROOT Hips
{
	OFFSET 0.00000 0.00000 0.00000
	CHANNELS 6 Xposition Yposition Zposition Zrotation Yrotation Xrotation 
	JOINT LHipJoint
	{
		OFFSET 0 0 0
		CHANNELS 3 Zrotation Yrotation Xrotation
		JOINT LeftHip
		{
			OFFSET 1.78158 -1.79992 1.25746
			CHANNELS 3 Zrotation Yrotation Xrotation
			JOINT LeftKnee
			{
				OFFSET 2.48433 -6.82566 0.00000
				CHANNELS 3 Zrotation Yrotation Xrotation
				JOINT LeftAnkle
				{
					OFFSET 2.69722 -7.41057 0.00000
					CHANNELS 3 Zrotation Yrotation Xrotation
					JOINT LeftToe
					{
						OFFSET 0.10733 -0.29489 1.75071
						CHANNELS 3 Zrotation Yrotation Xrotation
						End Site
						{
							OFFSET 0.00000 -0.00000 0.90224
						}
					}
				}
			}
		}
	}
	JOINT RHipJoint
	{
		OFFSET 0 0 0
		CHANNELS 3 Zrotation Yrotation Xrotation
		JOINT RightHip
		{
			OFFSET -1.91234 -1.79993 1.25746
			CHANNELS 3 Zrotation Yrotation Xrotation
			JOINT RightKnee
			{
				OFFSET -2.33122 -6.40498 0.00000
				CHANNELS 3 Zrotation Yrotation Xrotation
				JOINT RightAnkle
				{
					OFFSET -2.75667 -7.57390 0.00000
					CHANNELS 3 Zrotation Yrotation Xrotation
					JOINT RightToe
					{
						OFFSET -0.15946 -0.43811 1.78925
						CHANNELS 3 Zrotation Yrotation Xrotation
						End Site
						{
							OFFSET -0.00000 -0.00000 0.93158
						}
					}
				}
			}
		}
	}
	JOINT lowerback
	{
		OFFSET 0 0 0
		CHANNELS 3 Zrotation Yrotation Xrotation
		JOINT Chest
		{
			OFFSET -0.02267 2.03993 -0.26238
			CHANNELS 3 Zrotation Yrotation Xrotation
			JOINT Chest2
			{
				OFFSET 0.02263 2.06220 -0.00892
				CHANNELS 3 Zrotation Yrotation Xrotation
				JOINT lowerneck
				{
					OFFSET 0 0 0
					CHANNELS 3 Zrotation Yrotation Xrotation
					JOINT Neck
					{
						OFFSET -0.06177 1.95978 0.28606
						CHANNELS 3 Zrotation Yrotation Xrotation
						JOINT Head
						{
							OFFSET 0.08482 1.96576 -0.43252
							CHANNELS 3 Zrotation Yrotation Xrotation
							End Site
							{
								OFFSET 0.02787 2.02739 -0.18071
							}
						}
					}
				}
				JOINT LeftCollar
				{
					OFFSET 0 0 0
					CHANNELS 3 Zrotation Yrotation Xrotation
					JOINT LeftShoulder
					{
						OFFSET 3.80978 1.64906 0.29973
CHANNELS 3 Zrotation Xrotation Yrotation
						JOINT LeftElbow
						{
OFFSET 0 -4.930420 0.000000
CHANNELS 3 Zrotation Xrotation Yrotation
							JOINT LeftWrist
							{
OFFSET 0 -3.681770 0.000000
CHANNELS 3 Zrotation Xrotation Yrotation
								JOINT lhand
								{
									OFFSET 0 0 0
CHANNELS 3 Zrotation Xrotation Yrotation
									JOINT LFingers
									{
OFFSET 0 -0.721480 0.000000
CHANNELS 3 Zrotation Xrotation Yrotation
										End Site
										{
OFFSET 0 -0.581680 0.000000
										}
									}
								}
								JOINT LThumb
								{
OFFSET 0 0.000000 0.000000
CHANNELS 3 Zrotation Xrotation Yrotation
									End Site
									{
OFFSET 0 -0.590560 0.590560
									}
								}
							}
						}
					}
				}
				JOINT RightCollar
				{
					OFFSET 0 0 0
					CHANNELS 3 Zrotation Yrotation Xrotation
					JOINT RightShoulder
					{
						OFFSET -3.49270 1.85636 0.09297
CHANNELS 3 Zrotation Xrotation Yrotation
						JOINT RightElbow
						{
OFFSET 0 -5.079050 -0.000000
CHANNELS 3 Zrotation Xrotation Yrotation
							JOINT RightWrist
							{
OFFSET 0 -3.543940 0.000000
CHANNELS 3 Zrotation Xrotation Yrotation
								JOINT rhand
								{
									OFFSET 0 0 0
CHANNELS 3 Zrotation Xrotation Yrotation
									JOINT RFingers
									{
OFFSET 0 -0.681160 0.000000
CHANNELS 3 Zrotation Xrotation Yrotation
										End Site
										{
OFFSET 0 -0.549170 0.000000
										}
									}
								}
								JOINT RThumb
								{
OFFSET 0 0.000000 0.000000
CHANNELS 3 Zrotation Xrotation Yrotation
									End Site
									{
OFFSET 0 -0.557550 0.557550
									}
								}
							}
						}
					}
				}
			}
		}
	}
}
MOTION
Frames: 8
Frame Time: 0.008333333333333333
-10.173800 18.015600 -16.274100 -164.998000 86.057000 -161.470000 0.000000 0.000000 0.000000 -12.433000 -18.995300 -3.791900 1.260000 7.115700 20.058500 0.997200 9.287700 -24.378600 3.223200 -11.047800 -32.441300 0.000000 0.000000 0.000000 15.914800 -10.139200 1.136300 0.000000 -0.000000 0.000000 0.437700 -13.427100 -12.133000 -0.009300 0.623300 -1.712700 0.864000 0.150800 7.934100 2.002900 0.427200 -1.599400 1.549900 0.225600 -6.138100 -5.755700 -3.462200 -24.393200 0.452300 -2.330700 31.098200 0.751100 -1.453200 15.028200 -0.000000 0.000000 0.000000 2.046400 3.951900 -14.689800 28.545800 -39.613900 10.469900 33.740100 -19.049300 -8.237000 0.000000 0.000000 0.000000 -7.125000 0.000000 0.000000 6.023700 39.785500 0.777500 -0.000000 0.000000 0.000000 -16.920800 7.505000 9.410000 -22.100600 -33.090500 -6.640700 -20.109200 17.694600 17.355300 0.000000 0.000000 0.000000 7.125000 0.000000 -0.000000 7.597500 48.240200 -0.610600
-10.174664 18.015201 -16.299747 -164.968100 86.129756 -161.447409 0.000000 0.000000 0.000000 -12.480707 -18.521354 -3.958342 1.256744 7.106863 20.032387 0.986968 9.022322 -24.081396 3.290907 -11.151253 -32.792258 0.000000 0.000000 0.000000 15.805234 -10.070032 1.151649 0.000000 0.000000 0.000000 0.445939 -13.486036 -12.084629 -0.013552 0.746620 -2.051897 0.791044 0.171198 7.947256 2.003631 0.446469 -1.569832 1.589102 0.237560 -6.115376 -5.751647 -3.445456 -24.366888 0.467781 -2.319338 31.021191 0.759073 -1.445958 14.986672 0.000000 0.000000 0.000000 2.124937 3.913761 -14.901424 28.586264 -39.650378 10.495680 33.713190 -19.035945 -8.248893 0.000000 0.000000 0.000000 -7.125000 0.000000 0.000000 6.000179 39.797128 0.772716 0.000000 0.000000 0.000000 -16.702398 7.408191 9.274122 -22.274883 -33.285978 -6.736180 -19.837377 17.727888 17.180087 0.000000 0.000000 0.000000 7.125000 0.000000 0.000000 7.808859 48.019008 -0.584355
-10.175593 18.014704 -16.325461 -164.640891 86.203203 -161.117643 0.000000 0.000000 0.000000 -12.505918 -18.061978 -4.146162 1.257139 7.107925 20.035545 0.979958 8.750005 -23.806654 3.357429 -11.251911 -33.134796 0.000000 0.000000 0.000000 15.716749 -9.990898 1.157394 0.000000 0.000000 0.000000 0.453323 -13.537999 -12.038625 -0.018035 0.863659 -2.373828 0.734796 0.194885 7.951006 2.010051 0.472184 -1.542337 1.623963 0.252250 -6.089594 -5.746870 -3.431212 -24.347384 0.483658 -2.310936 30.958522 0.766455 -1.439801 14.953334 0.000000 0.000000 0.000000 2.189003 3.887758 -15.115680 28.604595 -39.666892 10.507352 33.679538 -19.040053 -8.257071 0.000000 0.000000 0.000000 -7.125000 0.000000 0.000000 5.970672 39.803724 0.767899 0.000000 0.000000 0.000000 -16.479984 7.316907 9.179255 -22.424598 -33.453403 -6.818472 -19.590188 17.722270 17.001782 0.000000 0.000000 0.000000 7.125000 0.000000 0.000000 7.995584 47.798703 -0.554985
-10.176590 18.014106 -16.351241 -164.010337 86.277355 -160.474464 0.000000 0.000000 0.000000 -12.508177 -17.617467 -4.355793 1.261259 7.119088 20.068568 0.976237 8.470608 -23.554831 3.422744 -11.349717 -33.468744 0.000000 0.000000 0.000000 15.649773 -9.901597 1.153341 0.000000 0.000000 0.000000 0.459835 -13.582849 -11.995038 -0.022753 0.974288 -2.678142 0.695594 0.221928 7.945159 2.022277 0.504475 -1.516955 1.654394 0.269724 -6.060690 -5.741355 -3.419518 -24.334826 0.499936 -2.305554 30.910483 0.773232 -1.434751 14.928351 0.000000 0.000000 0.000000 2.238305 3.874137 -15.332620 28.600343 -39.663039 10.504627 33.639007 -19.061980 -8.261456 0.000000 0.000000 0.000000 -7.125000 0.000000 0.000000 5.935058 39.805185 0.763049 0.000000 0.000000 0.000000 -16.253476 7.231261 9.126233 -22.549247 -33.592205 -6.887308 -19.368132 17.676955 16.820324 0.000000 0.000000 0.000000 7.125000 0.000000 0.000000 8.157176 47.579305 -0.522427
-10.177521 18.013245 -16.377613 -163.078528 86.337562 -159.528715 0.000000 0.000000 0.000000 -12.502017 -17.256492 -4.536154 1.266102 7.132224 20.107642 0.974424 8.235478 -23.357668 3.481217 -11.435815 -33.764541 0.000000 0.000000 0.000000 15.598386 -9.820190 1.151195 0.000000 0.000000 0.000000 0.460887 -13.588496 -11.984339 -0.023721 0.994804 -2.734545 0.686912 0.251734 7.936220 2.040554 0.544003 -1.492297 1.673183 0.289896 -6.030932 -5.735249 -3.417229 -24.328714 0.505494 -2.308460 30.886649 0.773958 -1.434503 14.916129 0.000000 0.000000 0.000000 2.262414 3.885182 -15.583171 28.552415 -39.619851 10.474080 33.590649 -19.119557 -8.276037 0.000000 0.000000 0.000000 -7.125000 0.000000 0.000000 5.892603 39.817961 0.755699 0.000000 0.000000 0.000000 -16.056305 7.185804 9.265606 -22.627787 -33.679241 -6.930820 -19.263092 17.495286 16.684908 0.000000 0.000000 0.000000 7.125000 0.000000 0.000000 8.220301 47.424565 -0.494869
-10.178322 18.012188 -16.404539 -162.213900 86.386672 -158.657222 0.000000 0.000000 0.000000 -12.510850 -16.960065 -4.688250 1.272434 7.149375 20.158667 0.974467 8.032921 -23.202463 3.532565 -11.510870 -34.022963 0.000000 0.000000 0.000000 15.538781 -9.754425 1.159573 0.000000 0.000000 0.000000 0.458178 -13.568742 -11.999460 -0.021687 0.947902 -2.605516 0.688464 0.280310 7.933565 2.057862 0.582959 -1.466680 1.685217 0.309418 -6.003582 -5.729555 -3.420450 -24.320090 0.502371 -2.315671 30.870730 0.770305 -1.437332 14.907097 0.000000 0.000000 0.000000 2.273927 3.907851 -15.852269 28.480458 -39.554740 10.428267 33.536605 -19.182523 -8.301192 0.000000 0.000000 0.000000 -7.125000 0.000000 0.000000 5.845278 39.842772 0.746036 0.000000 0.000000 0.000000 -15.876379 7.167079 9.509071 -22.685818 -33.743487 -6.962992 -19.220426 17.253398 16.582664 0.000000 0.000000 0.000000 7.125000 0.000000 0.000000 8.233548 47.312851 -0.472999
-10.178987 18.010925 -16.432047 -161.423880 86.424147 -157.867866 0.000000 0.000000 0.000000 -12.535701 -16.731298 -4.810640 1.280341 7.170770 20.222321 0.976460 7.864486 -23.091236 3.576419 -11.574325 -34.242095 0.000000 0.000000 0.000000 15.470277 -9.705190 1.179107 0.000000 0.000000 0.000000 0.451534 -13.522431 -12.041652 -0.016504 0.830363 -2.282199 0.700557 0.307552 7.937619 2.074074 0.621231 -1.440036 1.690200 0.328222 -5.978798 -5.724306 -3.429420 -24.308728 0.490146 -2.327365 30.862956 0.762066 -1.443378 14.901316 0.000000 0.000000 0.000000 2.272332 3.942602 -16.140702 28.383450 -39.466768 10.366541 33.476606 -19.250827 -8.337471 0.000000 0.000000 0.000000 -7.125000 0.000000 0.000000 5.792854 39.880247 0.733943 0.000000 0.000000 0.000000 -15.714455 7.176314 9.861026 -22.722561 -33.784084 -6.983390 -19.242751 16.949018 16.515157 0.000000 0.000000 0.000000 7.125000 0.000000 0.000000 8.194877 47.246141 -0.457119
-10.179456 18.009533 -16.460662 -161.144962 86.441958 -157.608494 0.000000 0.000000 0.000000 -12.615632 -16.632032 -4.861671 1.289745 7.196071 20.297498 0.981774 7.762916 -23.060157 3.596702 -11.603466 -34.343186 0.000000 0.000000 0.000000 15.362317 -9.695931 1.226573 0.000000 0.000000 0.000000 0.438443 -13.434450 -12.133326 -0.009108 0.590875 -1.623768 0.719030 0.327437 7.962376 2.080455 0.650192 -1.412024 1.682552 0.341947 -5.964041 -5.721921 -3.447440 -24.283238 0.462229 -2.345310 30.865795 0.746860 -1.454503 14.897489 0.000000 0.000000 0.000000 2.242936 3.998056 -16.440921 28.230123 -39.327035 10.269265 33.399809 -19.293153 -8.391654 0.000000 0.000000 0.000000 -7.125000 0.000000 0.000000 5.725780 39.937124 0.717358 0.000000 0.000000 0.000000 -15.560344 7.236725 10.343067 -22.726035 -33.787830 -6.985297 -19.335589 16.594895 16.495439 0.000000 0.000000 0.000000 7.125000 0.000000 0.000000 8.102623 47.238615 -0.450419
